<svg width="680" height="480" viewBox="0 0 680 480" xmlns="http://www.w3.org/2000/svg">
  <rect width="680" height="480" fill="#080608"/>
  <ellipse cx="340" cy="210" rx="280" ry="140" fill="#6C3FC4" opacity="0.06"/>
  <circle cx="340" cy="210" r="160" fill="none" stroke="#AA66FF" stroke-width="1" opacity="0.25"/>
  <circle cx="340" cy="210" r="120" fill="none" stroke="#6C3FC4" stroke-width="1" opacity="0.2"/>
  <circle cx="340" cy="80" r="10" fill="#080608" stroke="#AA66FF" stroke-width="1.5"/>
  <line x1="340" y1="90" x2="340" y2="175" stroke="#AA66FF" stroke-width="1" opacity="0.4"/>
  <circle cx="478" cy="130" r="10" fill="#080608" stroke="#AA66FF" stroke-width="1.5"/>
  <line x1="469" y1="137" x2="388" y2="183" stroke="#AA66FF" stroke-width="1" opacity="0.4"/>
  <circle cx="478" cy="292" r="10" fill="#080608" stroke="#AA66FF" stroke-width="1.5"/>
  <line x1="469" y1="285" x2="388" y2="238" stroke="#AA66FF" stroke-width="1" opacity="0.4"/>
  <circle cx="340" cy="342" r="10" fill="#080608" stroke="#AA66FF" stroke-width="1.5"/>
  <line x1="340" y1="332" x2="340" y2="247" stroke="#AA66FF" stroke-width="1" opacity="0.4"/>
  <circle cx="202" cy="292" r="10" fill="#080608" stroke="#AA66FF" stroke-width="1.5"/>
  <line x1="211" y1="285" x2="292" y2="238" stroke="#AA66FF" stroke-width="1" opacity="0.4"/>
  <circle cx="202" cy="130" r="10" fill="#080608" stroke="#AA66FF" stroke-width="1.5"/>
  <line x1="211" y1="137" x2="292" y2="183" stroke="#AA66FF" stroke-width="1" opacity="0.4"/>
  <circle cx="340" cy="210" r="32" fill="#0e0a14" stroke="#AA66FF" stroke-width="2"/>
  <circle cx="340" cy="210" r="24" fill="#160e22" stroke="#6C3FC4" stroke-width="1" opacity="0.8"/>
  <polygon points="340,192 355,210 340,228 325,210" fill="none" stroke="#AA66FF" stroke-width="1.5"/>
  <polygon points="340,200 348,210 340,220 332,210" fill="#AA66FF" opacity="0.6"/>
  <circle cx="340" cy="80" r="3" fill="#FF6B35" opacity="0.8"/>
  <circle cx="478" cy="130" r="3" fill="#FF6B35" opacity="0.8"/>
  <circle cx="478" cy="292" r="3" fill="#FF6B35" opacity="0.8"/>
  <circle cx="340" cy="342" r="3" fill="#FF6B35" opacity="0.8"/>
  <circle cx="202" cy="292" r="3" fill="#FF6B35" opacity="0.8"/>
  <circle cx="202" cy="130" r="3" fill="#FF6B35" opacity="0.8"/>
  <text x="340" y="400" text-anchor="middle" font-family="Arial,sans-serif" font-size="22" font-weight="700" fill="#EDE8FF" letter-spacing="2">SORABBYNGO</text>
  <text x="340" y="422" text-anchor="middle" font-family="Arial,sans-serif" font-size="10" fill="#AA66FF" letter-spacing="6">COMPANY</text>
  <rect x="220" y="430" width="240" height="1" fill="#6C3FC4" opacity="0.6"/>
  <text x="340" y="448" text-anchor="middle" font-family="Arial,sans-serif" font-size="9" fill="#AA66FF" letter-spacing="4">HEADQUARTERS</text>
  <text x="340" y="465" text-anchor="middle" font-family="Arial,sans-serif" font-size="8" fill="#3d2f55" letter-spacing="2">KISII · KENYA · 2024</text>
</svg>
